PathFileType	4	(X/Y/Z)	C:\Users\86182\Documents\cortex\Trimmed_M3_H8.trc
DataRate	CameraRate	NumFrames	NumMarkers	Units	OrigDataRate	OrigDataStartFrame	OrigNumFrames
100.00	100.00	       57	2	mm	100.00	181	       901
Frame#	Time	gripper			box			
		X1	Y1	Z1	X2	Y2	Z2	

181	1.800	268.21759	172.68443	211.37985	269.59137	169.11371	74.44267	
182	1.810	268.19543	172.66951	211.79425	269.38043	169.21159	74.97949	
183	1.820	268.17416	172.64876	212.21077	269.14603	169.31825	75.54568	
184	1.830	268.15643	172.62163	212.63177	268.94351	169.40619	76.10728	
185	1.840	268.14316	172.58977	213.05847	268.79477	169.46490	76.64740	
186	1.850	268.13251	172.55771	213.49046	268.70151	169.49405	77.15797	
187	1.860	268.12238	172.53014	213.92700	268.65524	169.49956	77.63853	
188	1.870	268.11316	172.50893	214.36775	268.64377	169.49091	78.09590	
189	1.880	268.10626	172.49341	214.81110	268.65457	169.47812	78.53948	
190	1.890	268.10129	172.48280	215.25322	268.67648	169.46864	78.97539	
191	1.900	268.09589	172.47772	215.69003	268.70047	169.46631	79.40488	
192	1.910	268.08853	172.47891	216.11977	268.71982	169.47244	79.82801	
193	1.920	268.07956	172.48566	216.54369	268.72952	169.48744	80.24718	
194	1.930	268.07007	172.49570	216.96420	268.72617	169.51088	80.66589	
195	1.940	268.05994	172.50693	217.38300	268.70972	169.54028	81.08534	
196	1.950	268.04684	172.51880	217.80022	268.68414	169.57097	81.50346	
197	1.960	268.02792	172.53195	218.21541	268.65463	169.59755	81.91725	
198	1.970	268.00333	172.54614	218.62952	268.62430	169.61644	82.32612	
199	1.980	267.97714	172.55951	219.04520	268.59503	169.62712	82.73334	
200	1.990	267.95508	172.56958	219.46494	268.56885	169.63194	83.14384	
201	2.000	267.94125	172.57433	219.88937	268.54749	169.63455	83.56100	
202	2.010	267.93668	172.57321	220.31793	268.53165	169.63757	83.98569	
203	2.020	267.94016	172.56798	220.75063	268.52072	169.64171	84.41725	
204	2.030	267.94943	172.56178	221.18854	268.51376	169.64639	84.85461	
205	2.040	267.96234	172.55685	221.63202	268.51108	169.65062	85.29637	
206	2.050	267.97797	172.55342	222.07872	268.51425	169.65413	85.74052	
207	2.060	267.99606	172.55130	222.52423	268.52362	169.65857	86.18517	
208	2.070	268.01608	172.55161	222.96500	268.53616	169.66682	86.62889	
209	2.080	268.03708	172.55576	223.40034	268.54739	169.68039	87.06934	
210	2.090	268.05884	172.56287	223.83124	268.55566	169.69785	87.50352	
211	2.100	268.08142	172.56949	224.25816	268.56284	169.71519	87.93072	
212	2.110	268.10364	172.57222	224.68082	268.57037	169.72871	88.35381	
213	2.120	268.12274	172.57065	225.09976	268.57581	169.73819	88.77673	
214	2.130	268.13568	172.56763	225.51715	268.57523	169.74666	89.20074	
215	2.140	268.14172	172.56650	225.93552	268.56729	169.75754	89.62469	
216	2.150	268.14264	172.56848	226.35620	268.55374	169.77251	90.04872	
217	2.160	268.14053	172.57265	226.77957	268.53653	169.79170	90.47620	
218	2.170	268.13623	172.57811	227.20613	268.51666	169.81491	90.91148	
219	2.180	268.13046	172.58554	227.63663	268.49591	169.84190	91.35561	
220	2.190	268.12485	172.59583	228.07150	268.47784	169.87114	91.80380	
221	2.200	268.12003	172.60896	228.51048	268.46802	169.89868	92.24700	
222	2.210	268.11441	172.62520	228.95241	268.47476	169.91809	92.67606	
223	2.220	268.10632	172.64560	229.39552	268.51099	169.92018	93.08321	
224	2.230	268.09592	172.67091	229.83771	268.59491	169.89397	93.45914	
225	2.240	268.08334	172.70047	230.27687	268.74603	169.82974	93.79104	
226	2.250	268.06805	172.73227	230.71158	268.97623	169.72195	94.06688	
227	2.260	268.05048	172.76340	231.14137	269.27991	169.57170	94.28587	
228	2.270	268.03293	172.79051	231.56628	269.62460	169.39310	94.46916	
229	2.280	268.01770	172.81136	231.98640	269.95999	169.21198	94.65424	
230	2.290	268.00592	172.82571	232.40207	270.26389	169.04170	94.86160	
231	2.300	267.99847	172.83450	232.81395	270.56271	168.86993	95.07764	
232	2.310	267.99725	172.83856	233.22314	270.86707	168.69296	95.29451	
233	2.320	268.00400	172.83861	233.63132	271.11523	168.54776	95.54895	
234	2.330	268.01862	172.83566	234.04111	271.23120	168.47943	95.88929	
235	2.340	268.03857	172.83115	234.45549	271.22556	168.48351	96.31322	
236	2.350	268.06064	172.82626	234.87622	271.18381	168.51236	96.77258	
237	2.360	268.08270	172.82211	235.30328	271.14774	168.54263	97.24314	
